# xmcd
#
# Track frame offsets:
#	150
#	14665
#	27889
#	44179
#	61306
#	78135
#	94016
#	108943
#	126489
#	141384
#	157030
#
# Disc length: 2297 seconds
#
# Revision: 0
# Processed by: cddbd v1.5.2PL0 Copyright (c) Steve Scherf et al.
# Submitted via: EasyCDDAExtractor 10.0.2.1
#
DISCID=9808f70b
DTITLE=Luke Bryan - Spring Break...Checkin' Out
DYEAR=2015
DGENRE=Country
TTITLE0=My Ol' Bronco
TTITLE1=Games
TTITLE2=She Get Me High
TTITLE3=Spring Breakdown
TTITLE4=Good Lookin' Girl
TTITLE5=Checkin’ Out
TTITLE6=You And The Beach
TTITLE7=Night One
TTITLE8=Like We Ain't Ever
TTITLE9=The Sand I Brought To The Beach
TTITLE10=Are You Leaving With Him
EXTD=
EXTT0=
EXTT1=
EXTT2=
EXTT3=
EXTT4=
EXTT5=
EXTT6=
EXTT7=
EXTT8=
EXTT9=
EXTT10=
PLAYORDER=
